<?xml version="1.0" encoding="UTF-8" standalone="no"?>
<svg
   xmlns:dc="http://purl.org/dc/elements/1.1/"
   xmlns:cc="http://creativecommons.org/ns#"
   xmlns:rdf="http://www.w3.org/1999/02/22-rdf-syntax-ns#"
   xmlns:svg="http://www.w3.org/2000/svg"
   xmlns="http://www.w3.org/2000/svg"
   xmlns:sodipodi="http://sodipodi.sourceforge.net/DTD/sodipodi-0.dtd"
   xmlns:inkscape="http://www.inkscape.org/namespaces/inkscape"
   height="176"
   width="248"
   inkscape:version="1.0 (4035a4fb49, 2020-05-01)"
   sodipodi:docname="flag-uk.svg"
   xml:space="preserve"
   viewBox="0 0 248 176"
   version="1.1"
   id="United_x5F_Kingdom"><metadata
     id="metadata53"><rdf:RDF><cc:Work
         rdf:about=""><dc:format>image/svg+xml</dc:format><dc:type
           rdf:resource="http://purl.org/dc/dcmitype/StillImage" /></cc:Work></rdf:RDF></metadata><defs
     id="defs51" /><sodipodi:namedview
     inkscape:current-layer="g16"
     inkscape:window-maximized="1"
     inkscape:window-y="-8"
     inkscape:window-x="1912"
     inkscape:cy="127.88095"
     inkscape:cx="146.32143"
     inkscape:zoom="3.36"
     showgrid="false"
     id="namedview49"
     inkscape:window-height="1377"
     inkscape:window-width="2560"
     inkscape:pageshadow="2"
     inkscape:pageopacity="0"
     guidetolerance="10"
     gridtolerance="10"
     objecttolerance="10"
     borderopacity="1"
     bordercolor="#666666"
     pagecolor="#ffffff" /><g
     transform="translate(-3.6785718,-22.119048)"
     id="g16"><polygon
       transform="translate(-26.321429,-43.880952)"
       points="34.352,238 274,238 273.749,70 34,70 "
       style="fill:#002f6c;fill-opacity:1;stroke:#000000;stroke-width:8;stroke-linecap:round;stroke-linejoin:round;stroke-miterlimit:10"
       id="polygon2" /><polygon
       transform="translate(-26.321429,-43.880952)"
       points="34.142,185.757 121.523,185.757 121.523,238 185.724,238 185.724,185.757 273.925,185.757 273.824,126 185.724,126 185.724,70 121.523,70 121.523,126 34,126 "
       style="fill:#ffffff;stroke:#000000;stroke-width:8;stroke-linecap:round;stroke-linejoin:round;stroke-miterlimit:10"
       id="polygon4" /><polygon
       transform="translate(-26.321429,-43.880952)"
       points="170,142 181.377,142 273.764,80.006 273.749,70 259.96,70 170,130.366 "
       style="fill:#c8102e;fill-opacity:1;stroke:#000000;stroke-width:8;stroke-linecap:round;stroke-linejoin:round;stroke-miterlimit:10"
       id="polygon6" /><polygon
       transform="translate(-26.321429,-43.880952)"
       points="138,142 126.623,142 34.236,80.006 34.251,70 48.04,70 138,130.366 "
       style="fill:#c8102e;fill-opacity:1;stroke:#000000;stroke-width:8;stroke-linecap:round;stroke-linejoin:round;stroke-miterlimit:10"
       id="polygon8" /><polygon
       transform="translate(-26.321429,-43.880952)"
       points="170,166 181.377,166 273.764,227.994 273.749,238 259.96,238 170,177.634 "
       style="fill:#c8102e;fill-opacity:1;stroke:#000000;stroke-width:8;stroke-linecap:round;stroke-linejoin:round;stroke-miterlimit:10"
       id="polygon10" /><polygon
       transform="translate(-26.321429,-43.880952)"
       points="138,166 126.623,166 34.236,227.994 34.251,238 48.04,238 138,177.634 "
       style="fill:#c8102e;fill-opacity:1;stroke:#000000;stroke-width:8;stroke-linecap:round;stroke-linejoin:round;stroke-miterlimit:10"
       id="polygon12" /><polygon
       transform="translate(-26.321429,-43.880952)"
       points="34.066,170 138,170 138,238 170,238 170,170 273.898,170 273.851,142 170,142 170,70 138,70 138,142 34,142 "
       style="fill:#c8102e;fill-opacity:1;stroke:#000000;stroke-width:8;stroke-linecap:round;stroke-linejoin:round;stroke-miterlimit:10"
       id="polygon14" /></g><g
     transform="translate(-3.6785718,-22.119048)"
     id="g18" /><g
     transform="translate(-3.6785718,-22.119048)"
     id="g20" /><g
     transform="translate(-3.6785718,-22.119048)"
     id="g22" /><g
     transform="translate(-3.6785718,-22.119048)"
     id="g24" /><g
     transform="translate(-3.6785718,-22.119048)"
     id="g26" /><g
     transform="translate(-3.6785718,-22.119048)"
     id="g28" /><g
     transform="translate(-3.6785718,-22.119048)"
     id="g30" /><g
     transform="translate(-3.6785718,-22.119048)"
     id="g32" /><g
     transform="translate(-3.6785718,-22.119048)"
     id="g34" /><g
     transform="translate(-3.6785718,-22.119048)"
     id="g36" /><g
     transform="translate(-3.6785718,-22.119048)"
     id="g38" /><g
     transform="translate(-3.6785718,-22.119048)"
     id="g40" /><g
     transform="translate(-3.6785718,-22.119048)"
     id="g42" /><g
     transform="translate(-3.6785718,-22.119048)"
     id="g44" /><g
     transform="translate(-3.6785718,-22.119048)"
     id="g46" /></svg>
