<?xml version="1.0" ?><svg enable-background="new 0 0 500 500" id="Layer_1" version="1.1" viewBox="0 0 500 500" xml:space="preserve" xmlns="http://www.w3.org/2000/svg" xmlns:xlink="http://www.w3.org/1999/xlink"><g><circle cx="250.247" cy="260.733" fill="#2666CE" r="213.533"/><path d="M250.247,111.431c-82.456,0-149.302,66.846-149.302,149.301c0,82.456,66.846,149.303,149.302,149.303   c82.456,0,149.301-66.847,149.301-149.303C399.548,178.277,332.703,111.431,250.247,111.431z M250.247,344.064   c-46.025,0-83.331-37.31-83.331-83.332c0-46.02,37.306-83.329,83.331-83.329s83.329,37.309,83.329,83.329   C333.576,306.754,296.272,344.064,250.247,344.064z" fill="#4384EC"/><path d="M259.93,252.27c0,0-4.074-3.975-9.247,1.989c-5.161,5.963,0.499,10.335,0.499,10.335l147.562,149.506   c4.099-3.968,8.037-8.092,11.8-12.375L259.93,252.27z" opacity="0.1"/><g><path d="M414.97,62.055L411.514,91.9c-0.719,6.21,4.77,11.347,10.918,10.219l28.505-5.23    c4.936-0.469,7.701,5.544,4.133,8.986l-40.045,38.627c-4.687,4.521-10.944,7.047-17.455,7.047h-34.664v-32.555    c0-5.887,2.065-11.587,5.836-16.107l36.968-44.312C408.887,54.766,415.087,57.096,414.97,62.055z" fill="#FECC5D"/><path d="M249.814,252.595l144.717-143.091c0,0,3.581-4.637,8.464-0.405c4.883,4.231,1.628,7.568,1.628,7.568    L260.231,262.035c0,0-5.426,4.448-9.984,0.216C245.69,258.02,249.814,252.595,249.814,252.595z" fill="#FFFFFF"/></g></g></svg>