<?xml version="1.0" encoding="UTF-8" standalone="no"?>
<svg
   xmlns:dc="http://purl.org/dc/elements/1.1/"
   xmlns:cc="http://creativecommons.org/ns#"
   xmlns:rdf="http://www.w3.org/1999/02/22-rdf-syntax-ns#"
   xmlns:svg="http://www.w3.org/2000/svg"
   xmlns="http://www.w3.org/2000/svg"
   xmlns:sodipodi="http://sodipodi.sourceforge.net/DTD/sodipodi-0.dtd"
   xmlns:inkscape="http://www.inkscape.org/namespaces/inkscape"
   version="1.1"
   x="0px"
   y="0px"
   viewBox="0 0 80 80"
   xml:space="preserve"
   id="svg14"
   sodipodi:docname="target.svg"
   width="80"
   height="80"
   inkscape:version="1.0 (4035a4fb49, 2020-05-01)"><metadata
     id="metadata20"><rdf:RDF><cc:Work
         rdf:about=""><dc:format>image/svg+xml</dc:format><dc:type
           rdf:resource="http://purl.org/dc/dcmitype/StillImage" /></cc:Work></rdf:RDF></metadata><defs
     id="defs18" /><sodipodi:namedview
     inkscape:document-rotation="0"
     pagecolor="#ffffff"
     bordercolor="#666666"
     borderopacity="1"
     objecttolerance="10"
     gridtolerance="10"
     guidetolerance="10"
     inkscape:pageopacity="0"
     inkscape:pageshadow="2"
     inkscape:window-width="1920"
     inkscape:window-height="1017"
     id="namedview16"
     showgrid="false"
     inkscape:zoom="8.064"
     inkscape:cx="40"
     inkscape:cy="37.619048"
     inkscape:window-x="-8"
     inkscape:window-y="337"
     inkscape:window-maximized="1"
     inkscape:current-layer="svg14" /><rect
     y="-11.408731"
     x="-20.833332"
     height="103.42262"
     width="129.46428"
     id="rect845"
     style="fill:#ffc72c;fill-opacity:1;stroke:#ffa000;stroke-width:2" /><g
     id="g8"
     transform="scale(0.8)"
     style="fill:#c8102e;fill-opacity:1"><path
       d="M 50,10 C 27.943848,10 10,27.943848 10,50 10,72.056152 27.943848,90 50,90 72.056152,90 90,72.056152 90,50 90,27.943848 72.056152,10 50,10 Z m 0,78 C 29.046875,88 12,70.953125 12,50 12,29.046875 29.046875,12 50,12 70.953125,12 88,29.046875 88,50 88,70.953125 70.953125,88 50,88 Z"
       id="path2"
       style="fill:#c8102e;fill-opacity:1" /><path
       d="M 50,14 C 30.149414,14 14,30.149414 14,50 14,69.850586 30.149414,86 50,86 69.850586,86 86,69.850586 86,50 86,30.149414 69.850586,14 50,14 Z m 0,70 C 31.252441,84 16,68.747559 16,50 16,31.252441 31.252441,16 50,16 68.747559,16 84,31.252441 84,50 84,68.747559 68.747559,84 50,84 Z"
       id="path4"
       style="fill:#c8102e;fill-opacity:1" /><path
       d="m 55.548035,23.628052 -0.584168,-5.41565 c -0.03809,-0.353027 -0.260742,-0.659179 -0.584472,-0.804687 -0.322266,-0.145508 -0.700196,-0.107422 -0.990235,0.09766 l -3.421875,2.439453 -3.781738,-2.398925 c -0.294434,-0.1875 -0.666504,-0.20752 -0.978027,-0.05225 -0.312989,0.154297 -0.52295,0.46045 -0.553711,0.808106 l -0.478028,5.378113 C 32.444763,26.363647 24,36.878906 24,49 24,63.336426 35.663574,75 50,75 64.336426,75 76,63.336426 76,49 76,36.739624 67.438721,26.20166 55.548035,23.628052 Z m 17.71698,19.490234 c -0.08478,-0.153931 -0.208863,-0.28595 -0.365113,-0.37854 l -3.780273,-2.238892 0.86084,-4.304565 c 0.04041,-0.202331 0.01019,-0.405395 -0.06866,-0.588745 1.525513,2.268188 2.669861,4.802978 3.353211,7.510742 z m -5.3302,-0.994629 2.460693,1.457398 -6.236572,3.533081 -3.048096,-1.94812 z m -7.643311,1.209839 0.595703,-3.575195 6.794434,-2.264649 -0.561036,2.803223 z M 51,21.665283 53.158691,20.125977 53.921387,27.24707 51,29.153259 Z m 0,9.876099 4.526367,-2.95398 c 0.314453,-0.205078 0.487793,-0.569336 0.448242,-0.942383 l -0.204895,-1.93695 c 5.768189,1.413757 10.625489,4.888611 13.877442,9.532654 -0.264771,-0.227112 -0.63031,-0.299439 -0.963562,-0.189454 l -8.606018,2.868653 C 57.564941,35.6203 54.401489,34.271179 51,34.049072 Z m 0,4.505371 c 2.968872,0.223816 5.729431,1.431702 7.897949,3.482056 L 58.102051,44.304932 51,47.461426 Z M 49.455078,49.838379 C 49.619629,49.945312 49.80957,50 50,50 c 0.137695,0 0.276367,-0.02832 0.40625,-0.08643 l 8.504761,-3.779907 4.086059,2.611816 C 62.999023,48.829346 63,48.914185 63,49 63,56.168457 57.168457,62 50,62 42.831543,62 37,56.168457 37,49 37,42.169067 42.298523,36.564453 49,36.050659 V 49 c 0,0.338379 0.171387,0.653809 0.455078,0.838379 z M 46.105347,24.564514 46.500977,20.114258 49,21.699707 v 7.520508 l -3.138672,-1.911133 0.244629,-2.740234 c 1.22e-4,-0.0015 -7.32e-4,-0.0028 -6.1e-4,-0.0043 z M 50,73 C 36.766602,73 26,62.233887 26,49 26,38.026611 33.488892,28.46051 43.990967,25.759522 l -0.177002,1.991455 c -0.03369,0.379394 0.150879,0.745117 0.476074,0.942871 L 49,31.561768 v 2.488891 C 41.195496,34.569153 35,41.066528 35,49 c 0,8.270996 6.729004,15 15,15 8.270996,0 15,-6.729004 15,-15 0,-0.0213 -0.0022,-0.04114 -0.0023,-0.06238 l 3.755249,-2.127563 4.130371,-2.339844 c 0.232544,-0.131836 0.399414,-0.349365 0.469787,-0.600281 0.01862,-0.06634 0.02484,-0.136291 0.02942,-0.206299 C 73.775024,45.387146 74,47.1698 74,49 74,62.233887 63.233398,73 50,73 Z"
       id="path6"
       style="fill:#c8102e;fill-opacity:1" /></g></svg>
